<svg xmlns="http://www.w3.org/2000/svg" width="384pt" height="384pt" viewBox="0 0 384 384" version="1.1" class="iconadda">
<g>
<g id="Observe_free_icon_3jU9KA7-0"><path style=" stroke:none;fill-rule:nonzero;fill:#59b5d7;fill-opacity:1;" d="M 347.25 384 L 121.507812 384 C 119.851562 384 118.507812 382.65625 118.507812 381 L 118.507812 57.726562 C 118.507812 56.070312 119.851562 54.726562 121.507812 54.726562 L 347.25 54.726562 C 348.046875 54.726562 348.808594 55.042969 349.371094 55.605469 C 349.933594 56.167969 350.25 56.929688 350.25 57.726562 L 350.25 381 C 350.25 381.796875 349.933594 382.558594 349.371094 383.121094 C 348.808594 383.683594 348.046875 384 347.25 384 Z M 347.25 384 " />
</g><g id="Observe_free_icon_3jU9KA7-1"><path style=" stroke:none;fill-rule:nonzero;fill:#c0e7f5;fill-opacity:1;" d="M 303.605469 364.332031 L 77.882812 364.332031 C 76.226562 364.332031 74.882812 362.988281 74.882812 361.332031 L 74.882812 38.058594 C 74.882812 36.402344 76.226562 35.058594 77.882812 35.058594 L 303.605469 35.058594 C 304.402344 35.058594 305.164062 35.375 305.726562 35.9375 C 306.289062 36.5 306.605469 37.261719 306.605469 38.058594 L 306.605469 361.332031 C 306.605469 362.125 306.289062 362.890625 305.726562 363.453125 C 305.164062 364.015625 304.402344 364.332031 303.605469 364.332031 Z M 303.605469 364.332031 " />
</g><g id="Observe_free_icon_3jU9KA7-2"><path style=" stroke:none;fill-rule:nonzero;fill:#4b596f;fill-opacity:1;" d="M 193.132812 244.542969 L 106.339844 244.542969 C 103.234375 244.542969 100.714844 242.023438 100.714844 238.917969 C 100.714844 235.808594 103.234375 233.292969 106.339844 233.292969 L 193.132812 233.292969 C 196.242188 233.292969 198.757812 235.808594 198.757812 238.917969 C 198.757812 242.023438 196.242188 244.542969 193.132812 244.542969 Z M 193.132812 275.640625 L 106.339844 275.640625 C 103.234375 275.640625 100.714844 273.121094 100.714844 270.015625 C 100.714844 266.910156 103.234375 264.390625 106.339844 264.390625 L 193.132812 264.390625 C 196.242188 264.390625 198.757812 266.910156 198.757812 270.015625 C 198.757812 273.121094 196.242188 275.640625 193.132812 275.640625 Z M 193.132812 306.738281 L 106.339844 306.738281 C 103.234375 306.738281 100.714844 304.21875 100.714844 301.113281 C 100.714844 298.007812 103.234375 295.488281 106.339844 295.488281 L 193.132812 295.488281 C 196.242188 295.488281 198.757812 298.007812 198.757812 301.113281 C 198.757812 304.21875 196.242188 306.738281 193.132812 306.738281 Z M 193.132812 337.835938 L 106.339844 337.835938 C 103.234375 337.835938 100.714844 335.316406 100.714844 332.210938 C 100.714844 329.105469 103.234375 326.585938 106.339844 326.585938 L 193.132812 326.585938 C 196.242188 326.585938 198.757812 329.105469 198.757812 332.210938 C 198.757812 335.316406 196.242188 337.835938 193.132812 337.835938 Z M 275.898438 137.824219 L 244.847656 137.824219 C 241.742188 137.824219 239.222656 135.304688 239.222656 132.199219 C 239.222656 129.09375 241.742188 126.574219 244.847656 126.574219 L 275.898438 126.574219 C 279.003906 126.574219 281.523438 129.09375 281.523438 132.199219 C 281.523438 135.304688 279.003906 137.824219 275.898438 137.824219 Z M 275.898438 337.835938 L 244.847656 337.835938 C 241.742188 337.835938 239.222656 335.316406 239.222656 332.210938 C 239.222656 329.105469 241.742188 326.585938 244.847656 326.585938 L 275.898438 326.585938 C 279.003906 326.585938 281.523438 329.105469 281.523438 332.210938 C 281.523438 335.316406 279.003906 337.835938 275.898438 337.835938 Z M 275.898438 305.65625 L 244.847656 305.65625 C 241.742188 305.65625 239.222656 303.136719 239.222656 300.03125 C 239.222656 296.925781 241.742188 294.40625 244.847656 294.40625 L 275.898438 294.40625 C 279.003906 294.40625 281.523438 296.925781 281.523438 300.03125 C 281.523438 303.136719 279.003906 305.65625 275.898438 305.65625 Z M 275.898438 305.65625 " />
</g><g id="Observe_free_icon_3jU9KA7-3"><path style=" stroke:none;fill-rule:nonzero;fill:#facf6a;fill-opacity:1;" d="M 244.851562 64.710938 L 275.902344 64.710938 L 275.902344 111.140625 L 244.851562 111.140625 Z M 244.851562 64.710938 " />
</g><g id="Observe_free_icon_3jU9KA7-4"><path style=" stroke:none;fill-rule:nonzero;fill:#2c384c;fill-opacity:1;" d="M 226.402344 176.601562 L 210.199219 192.820312 L 172.652344 155.238281 L 188.855469 139.019531 Z M 226.402344 176.601562 " />
</g><g id="Observe_free_icon_3jU9KA7-5"><path style=" stroke:none;fill-rule:nonzero;fill:#ec7363;fill-opacity:1;" d="M 187.609375 26.421875 C 222.808594 61.652344 222.808594 118.769531 187.609375 153.996094 C 152.410156 189.226562 95.34375 189.226562 60.148438 153.996094 C 24.949219 118.765625 24.949219 61.648438 60.148438 26.421875 C 95.347656 -8.808594 152.414062 -8.808594 187.609375 26.421875 Z M 187.609375 26.421875 " />
</g><g id="Observe_free_icon_3jU9KA7-6"><path style=" stroke:none;fill-rule:nonzero;fill:#59b5d7;fill-opacity:1;" d="M 172.300781 41.746094 C 199.042969 68.511719 199.042969 111.910156 172.300781 138.675781 C 145.558594 165.441406 102.199219 165.441406 75.457031 138.675781 C 48.714844 111.910156 48.714844 68.511719 75.457031 41.746094 C 102.199219 14.980469 145.558594 14.980469 172.300781 41.746094 Z M 172.300781 41.746094 " />
</g><g id="Observe_free_icon_3jU9KA7-7"><path style=" stroke:none;fill-rule:nonzero;fill:#c0e7f5;fill-opacity:1;" d="M 161.382812 52.671875 C 182.097656 73.402344 182.097656 107.015625 161.382812 127.75 C 140.667969 148.480469 107.085938 148.480469 86.371094 127.75 C 65.65625 107.019531 65.65625 73.40625 86.371094 52.671875 C 107.085938 31.941406 140.667969 31.941406 161.382812 52.671875 Z M 161.382812 52.671875 " />
</g><g id="Observe_free_icon_3jU9KA7-8"><path style=" stroke:none;fill-rule:nonzero;fill:#4b596f;fill-opacity:1;" d="M 331.671875 274.5625 L 308.074219 298.183594 C 307.496094 298.761719 306.707031 299.089844 305.886719 299.089844 C 305.070312 299.089844 304.28125 298.761719 303.703125 298.183594 L 196.847656 191.234375 C 195.644531 190.027344 195.644531 188.074219 196.847656 186.867188 L 220.445312 163.246094 L 220.449219 163.246094 C 221.027344 162.667969 221.8125 162.339844 222.632812 162.339844 C 223.453125 162.339844 224.238281 162.667969 224.820312 163.246094 L 331.675781 270.195312 L 331.671875 270.195312 C 332.878906 271.402344 332.878906 273.355469 331.671875 274.5625 Z M 331.671875 274.5625 " />
</g><g id="Observe_free_icon_3jU9KA7-9"><path style=" stroke:none;fill-rule:nonzero;fill:#2c384c;fill-opacity:1;" d="M 220.449219 163.246094 L 211.875 171.828125 L 323.097656 283.148438 L 331.671875 274.566406 C 332.878906 273.359375 332.878906 271.402344 331.671875 270.195312 L 224.816406 163.246094 C 224.238281 162.664062 223.453125 162.339844 222.632812 162.339844 C 221.8125 162.339844 221.027344 162.664062 220.449219 163.246094 Z M 220.449219 163.246094 " />
</g><g id="Observe_free_icon_3jU9KA7-10"><path style=" stroke:none;fill-rule:nonzero;fill:#ec7363;fill-opacity:1;" d="M 273.789062 212.257812 L 245.820312 240.25 L 227.039062 221.453125 L 255.007812 193.460938 Z M 273.789062 212.257812 " />
</g><g id="Observe_free_icon_3jU9KA7-11"><path style=" stroke:none;fill-rule:nonzero;fill:#db4d30;fill-opacity:1;" d="M 273.789062 212.257812 L 263.027344 223.027344 L 244.246094 204.230469 L 255.007812 193.460938 Z M 273.789062 212.257812 " />
</g></g>
</svg>